<?xml version="1.0" standalone="no"?>
<!DOCTYPE svg PUBLIC "-//W3C//DTD SVG 20010904//EN"
 "http://www.w3.org/TR/2001/REC-SVG-20010904/DTD/svg10.dtd">
<svg version="1.0" xmlns="http://www.w3.org/2000/svg"
 width="256.000000pt" height="256.000000pt" viewBox="0 0 256.000000 256.000000"
 preserveAspectRatio="xMidYMid meet">
<metadata>
Created by potrace 1.11, written by Peter Selinger 2001-2013
</metadata>
<g transform="translate(0.000000,256.000000) scale(0.100000,-0.100000)"
fill="#000000" stroke="none">
<path d="M0 1280 l0 -1280 1280 0 1280 0 0 1280 0 1280 -1280 0 -1280 0 0
-1280z m2200 1185 l0 -35 -920 0 -920 0 0 35 0 35 920 0 920 0 0 -35z m0 -140
l0 -35 -95 0 -95 0 0 -409 0 -409 26 -17 c34 -22 64 -89 64 -145 0 -55 -28
-119 -64 -147 l-26 -21 0 -431 0 -431 95 0 95 0 0 -35 0 -35 -920 0 -920 0 0
35 0 34 103 3 102 3 3 424 2 425 -30 28 c-40 36 -60 85 -60 149 0 60 21 110
61 144 l29 24 -2 403 -3 403 -102 3 -103 3 0 34 0 35 920 0 920 0 0 -35z m0
-2230 l0 -35 -920 0 -920 0 0 35 0 35 920 0 920 0 0 -35z"/>
<path d="M647 2283 c-4 -3 -7 -185 -7 -403 l0 -396 31 -30 c45 -43 59 -76 59
-144 0 -70 -24 -127 -65 -154 l-25 -17 2 -427 3 -427 643 -3 642 -2 0 431 0
431 -25 20 c-40 31 -58 77 -59 143 0 66 28 136 64 155 19 10 20 21 20 420 l0
410 -638 0 c-351 0 -642 -3 -645 -7z m1191 -335 l-3 -273 -37 -77 c-23 -49
-56 -97 -87 -128 -63 -62 -172 -117 -253 -126 l-58 -7 0 -53 c0 -52 1 -54 28
-54 44 0 126 -25 183 -56 79 -43 146 -116 188 -203 l36 -76 3 -272 3 -273
-546 0 -546 0 3 278 3 278 34 69 c66 133 206 236 343 251 l58 7 0 51 0 51 -66
13 c-168 32 -305 153 -355 313 -17 53 -19 93 -19 310 l0 249 546 0 545 0 -3
-272z"/>
<path d="M822 1928 l3 -213 32 -67 c36 -77 108 -155 173 -188 24 -12 84 -30
133 -40 49 -10 93 -24 98 -32 13 -20 11 -163 -3 -192 -12 -27 -58 -46 -110
-46 -82 0 -211 -81 -266 -167 -53 -82 -63 -144 -60 -364 l3 -194 470 0 470 0
3 189 c2 145 -1 203 -13 250 -41 160 -156 262 -325 286 -101 15 -110 26 -110
139 0 55 5 93 13 103 7 9 42 19 90 26 96 13 171 48 232 109 95 94 115 170 115
425 l0 188 -476 0 -476 0 4 -212z m493 -64 c193 -30 356 -57 364 -59 19 -7 6
-86 -24 -146 -31 -60 -112 -133 -173 -154 -95 -34 -336 -28 -388 9 -14 11 1
14 92 20 60 3 120 9 134 13 l25 7 -25 7 c-14 4 -91 7 -172 8 l-147 1 -25 33
c-15 19 -26 36 -26 39 0 3 57 8 128 12 144 8 192 14 192 27 0 5 -79 9 -175 9
l-174 0 -10 37 c-6 20 -8 39 -6 41 3 4 170 15 313 21 7 1 11 5 8 10 -3 5 -78
12 -166 16 l-160 7 0 47 c0 56 4 62 39 55 14 -2 184 -29 376 -60z m48 -1035
c31 -16 307 -291 307 -306 0 -10 -82 -13 -385 -13 -327 0 -385 2 -385 14 0 17
281 275 325 299 35 19 107 22 138 6z"/>
</g>
</svg>
